<svg xmlns="http://www.w3.org/2000/svg" viewBox="0 0 64 64">
  <defs>
    <linearGradient id="g" x1="8" y1="6" x2="56" y2="58" gradientUnits="userSpaceOnUse">
      <stop stop-color="#ff7959"/>
      <stop offset="1" stop-color="#f04425"/>
    </linearGradient>
  </defs>
  <rect width="64" height="64" rx="17" fill="#10131a"/>
  <rect x="5" y="5" width="54" height="54" rx="14" fill="url(#g)"/>
  <path d="M20 21.5c0-3.6 3-6.5 6.7-6.5H43v7H27.8c-.8 0-1.4.6-1.4 1.3 0 .6.4 1.1 1 1.3l10.2 3.1A9.8 9.8 0 0 1 44.5 37c0 6.6-5.4 12-12.1 12H18v-7h14.4c3 0 5.5-2.4 5.5-5.4 0-1.2-.8-2.3-2-2.7l-10.2-3.1A9.7 9.7 0 0 1 20 21.5Z" fill="#fff"/>
</svg>
